<mxfile host="65bd71144e">
    <diagram id="4i94Mz4nOguV_iHQq0ls" name="Page-1">
        <mxGraphModel dx="507" dy="282" grid="1" gridSize="10" guides="1" tooltips="1" connect="1" arrows="1" fold="1" page="1" pageScale="1" pageWidth="850" pageHeight="1100" math="0" shadow="0">
            <root>
                <mxCell id="0"/>
                <mxCell id="1" parent="0"/>
                <mxCell id="2" value="1" style="rounded=0;whiteSpace=wrap;html=1;" vertex="1" parent="1">
                    <mxGeometry x="250" y="360" width="120" height="20" as="geometry"/>
                </mxCell>
                <mxCell id="3" value="2" style="rounded=0;whiteSpace=wrap;html=1;" vertex="1" parent="1">
                    <mxGeometry x="370" y="360" width="120" height="20" as="geometry"/>
                </mxCell>
                <mxCell id="4" value="3" style="rounded=0;whiteSpace=wrap;html=1;" vertex="1" parent="1">
                    <mxGeometry x="250" y="380" width="120" height="20" as="geometry"/>
                </mxCell>
                <mxCell id="5" value="4" style="rounded=0;whiteSpace=wrap;html=1;" vertex="1" parent="1">
                    <mxGeometry x="370" y="380" width="120" height="20" as="geometry"/>
                </mxCell>
                <mxCell id="6" value="5" style="rounded=0;whiteSpace=wrap;html=1;" vertex="1" parent="1">
                    <mxGeometry x="250" y="400" width="120" height="20" as="geometry"/>
                </mxCell>
                <mxCell id="7" value="6" style="rounded=0;whiteSpace=wrap;html=1;" vertex="1" parent="1">
                    <mxGeometry x="370" y="400" width="120" height="20" as="geometry"/>
                </mxCell>
                <mxCell id="8" value="7" style="rounded=0;whiteSpace=wrap;html=1;" vertex="1" parent="1">
                    <mxGeometry x="250" y="420" width="120" height="20" as="geometry"/>
                </mxCell>
                <mxCell id="9" value="8" style="rounded=0;whiteSpace=wrap;html=1;" vertex="1" parent="1">
                    <mxGeometry x="370" y="420" width="120" height="20" as="geometry"/>
                </mxCell>
                <mxCell id="16" value="9" style="rounded=0;whiteSpace=wrap;html=1;" vertex="1" parent="1">
                    <mxGeometry x="250" y="440" width="120" height="20" as="geometry"/>
                </mxCell>
                <mxCell id="17" value="10" style="rounded=0;whiteSpace=wrap;html=1;" vertex="1" parent="1">
                    <mxGeometry x="370" y="440" width="120" height="20" as="geometry"/>
                </mxCell>
                <mxCell id="18" value="11" style="rounded=0;whiteSpace=wrap;html=1;" vertex="1" parent="1">
                    <mxGeometry x="250" y="460" width="120" height="20" as="geometry"/>
                </mxCell>
                <mxCell id="19" value="12" style="rounded=0;whiteSpace=wrap;html=1;" vertex="1" parent="1">
                    <mxGeometry x="370" y="460" width="120" height="20" as="geometry"/>
                </mxCell>
                <mxCell id="20" value="13" style="rounded=0;whiteSpace=wrap;html=1;" vertex="1" parent="1">
                    <mxGeometry x="250" y="480" width="120" height="20" as="geometry"/>
                </mxCell>
                <mxCell id="21" value="14" style="rounded=0;whiteSpace=wrap;html=1;" vertex="1" parent="1">
                    <mxGeometry x="370" y="480" width="120" height="20" as="geometry"/>
                </mxCell>
                <mxCell id="22" value="13" style="rounded=0;whiteSpace=wrap;html=1;" vertex="1" parent="1">
                    <mxGeometry x="250" y="620" width="120" height="20" as="geometry"/>
                </mxCell>
                <mxCell id="23" value="14" style="rounded=0;whiteSpace=wrap;html=1;" vertex="1" parent="1">
                    <mxGeometry x="370" y="620" width="120" height="20" as="geometry"/>
                </mxCell>
                <mxCell id="24" value="" style="endArrow=classic;html=1;" edge="1" parent="1">
                    <mxGeometry width="50" height="50" relative="1" as="geometry">
                        <mxPoint x="170" y="360" as="sourcePoint"/>
                        <mxPoint x="230" y="360" as="targetPoint"/>
                    </mxGeometry>
                </mxCell>
                <mxCell id="26" value="" style="endArrow=classic;html=1;" edge="1" parent="1">
                    <mxGeometry width="50" height="50" relative="1" as="geometry">
                        <mxPoint x="170" y="499.63" as="sourcePoint"/>
                        <mxPoint x="229.9999999999999" y="499.63" as="targetPoint"/>
                    </mxGeometry>
                </mxCell>
                <mxCell id="27" value="X-header" style="text;html=1;align=center;verticalAlign=middle;resizable=0;points=[];autosize=1;strokeColor=none;fillColor=none;" vertex="1" parent="1">
                    <mxGeometry x="110" y="345" width="70" height="30" as="geometry"/>
                </mxCell>
                <mxCell id="28" value="Y-header" style="text;html=1;align=center;verticalAlign=middle;resizable=0;points=[];autosize=1;strokeColor=none;fillColor=none;" vertex="1" parent="1">
                    <mxGeometry x="110" y="480" width="70" height="30" as="geometry"/>
                </mxCell>
                <mxCell id="29" value="1" style="rounded=0;whiteSpace=wrap;html=1;" vertex="1" parent="1">
                    <mxGeometry x="250" y="500" width="120" height="20" as="geometry"/>
                </mxCell>
                <mxCell id="30" value="2" style="rounded=0;whiteSpace=wrap;html=1;" vertex="1" parent="1">
                    <mxGeometry x="370" y="500" width="120" height="20" as="geometry"/>
                </mxCell>
                <mxCell id="31" value="3" style="rounded=0;whiteSpace=wrap;html=1;" vertex="1" parent="1">
                    <mxGeometry x="250" y="520" width="120" height="20" as="geometry"/>
                </mxCell>
                <mxCell id="32" value="4(0xdeadbeef)" style="rounded=0;whiteSpace=wrap;html=1;" vertex="1" parent="1">
                    <mxGeometry x="370" y="520" width="120" height="20" as="geometry"/>
                </mxCell>
                <mxCell id="33" value="5" style="rounded=0;whiteSpace=wrap;html=1;" vertex="1" parent="1">
                    <mxGeometry x="250" y="540" width="120" height="20" as="geometry"/>
                </mxCell>
                <mxCell id="34" value="6" style="rounded=0;whiteSpace=wrap;html=1;" vertex="1" parent="1">
                    <mxGeometry x="370" y="540" width="120" height="20" as="geometry"/>
                </mxCell>
                <mxCell id="35" value="7" style="rounded=0;whiteSpace=wrap;html=1;" vertex="1" parent="1">
                    <mxGeometry x="250" y="560" width="120" height="20" as="geometry"/>
                </mxCell>
                <mxCell id="36" value="8" style="rounded=0;whiteSpace=wrap;html=1;" vertex="1" parent="1">
                    <mxGeometry x="370" y="560" width="120" height="20" as="geometry"/>
                </mxCell>
                <mxCell id="37" value="9" style="rounded=0;whiteSpace=wrap;html=1;" vertex="1" parent="1">
                    <mxGeometry x="250" y="580" width="120" height="20" as="geometry"/>
                </mxCell>
                <mxCell id="38" value="10" style="rounded=0;whiteSpace=wrap;html=1;" vertex="1" parent="1">
                    <mxGeometry x="370" y="580" width="120" height="20" as="geometry"/>
                </mxCell>
                <mxCell id="39" value="11" style="rounded=0;whiteSpace=wrap;html=1;" vertex="1" parent="1">
                    <mxGeometry x="250" y="600" width="120" height="20" as="geometry"/>
                </mxCell>
                <mxCell id="40" value="12" style="rounded=0;whiteSpace=wrap;html=1;" vertex="1" parent="1">
                    <mxGeometry x="370" y="600" width="120" height="20" as="geometry"/>
                </mxCell>
            </root>
        </mxGraphModel>
    </diagram>
</mxfile>